<svg width="16" height="16" viewBox="0 0 16 16" fill="none" xmlns="http://www.w3.org/2000/svg">
<path fill-rule="evenodd" clip-rule="evenodd" d="M0.666748 7.99992C0.666748 7.63173 0.965225 7.33325 1.33341 7.33325H14.6667C15.0349 7.33325 15.3334 7.63173 15.3334 7.99992C15.3334 8.36811 15.0349 8.66659 14.6667 8.66659H1.33341C0.965225 8.66659 0.666748 8.36811 0.666748 7.99992Z" fill="#808080"/>
<path fill-rule="evenodd" clip-rule="evenodd" d="M6.47149 2.86189C6.73184 3.12224 6.73184 3.54435 6.47149 3.8047L2.27622 7.99996L6.47149 12.1952C6.73184 12.4556 6.73184 12.8777 6.47149 13.138C6.21114 13.3984 5.78903 13.3984 5.52868 13.138L0.86201 8.47136C0.601661 8.21101 0.601661 7.7889 0.86201 7.52855L5.52868 2.86189C5.78903 2.60154 6.21114 2.60154 6.47149 2.86189Z" fill="#808080"/>
</svg>
