<svg width="16" height="16" viewBox="0 0 16 16" fill="none" xmlns="http://www.w3.org/2000/svg">
<path fill-rule="evenodd" clip-rule="evenodd" d="M0.666748 7.99999C0.666748 7.63181 0.965225 7.33333 1.33341 7.33333H14.6667C15.0349 7.33333 15.3334 7.63181 15.3334 7.99999C15.3334 8.36818 15.0349 8.66666 14.6667 8.66666H1.33341C0.965225 8.66666 0.666748 8.36818 0.666748 7.99999Z" fill="white"/>
<path fill-rule="evenodd" clip-rule="evenodd" d="M9.52876 2.86193C9.78911 2.60158 10.2112 2.60158 10.4716 2.86193L15.1382 7.52859C15.3986 7.78894 15.3986 8.21105 15.1382 8.4714L10.4716 13.1381C10.2112 13.3984 9.78911 13.3984 9.52876 13.1381C9.26841 12.8777 9.26841 12.4556 9.52876 12.1953L13.724 8L9.52876 3.80474C9.26841 3.54439 9.26841 3.12228 9.52876 2.86193Z" fill="white"/>
</svg>
