<svg width="16" height="16" viewBox="0 0 16 16" fill="none" xmlns="http://www.w3.org/2000/svg">
<path fill-rule="evenodd" clip-rule="evenodd" d="M2.66663 7.99992C2.66663 7.63173 2.9651 7.33325 3.33329 7.33325H4.66663C5.03482 7.33325 5.33329 7.63173 5.33329 7.99992V8.66658C5.33329 9.03477 5.03482 9.33325 4.66663 9.33325H3.33329C2.9651 9.33325 2.66663 9.03477 2.66663 8.66658V7.99992Z" fill="#DCDCDC"/>
<path fill-rule="evenodd" clip-rule="evenodd" d="M6.66663 7.99992C6.66663 7.63173 6.9651 7.33325 7.33329 7.33325H8.66663C9.03482 7.33325 9.33329 7.63173 9.33329 7.99992V8.66658C9.33329 9.03477 9.03482 9.33325 8.66663 9.33325H7.33329C6.9651 9.33325 6.66663 9.03477 6.66663 8.66658V7.99992Z" fill="#DCDCDC"/>
<path fill-rule="evenodd" clip-rule="evenodd" d="M2.66663 11.3334C2.66663 10.9652 2.9651 10.6667 3.33329 10.6667H4.66663C5.03482 10.6667 5.33329 10.9652 5.33329 11.3334V12.0001C5.33329 12.3683 5.03482 12.6667 4.66663 12.6667H3.33329C2.9651 12.6667 2.66663 12.3683 2.66663 12.0001V11.3334Z" fill="#DCDCDC"/>
<path fill-rule="evenodd" clip-rule="evenodd" d="M6.66663 11.3334C6.66663 10.9652 6.9651 10.6667 7.33329 10.6667H8.66663C9.03482 10.6667 9.33329 10.9652 9.33329 11.3334V12.0001C9.33329 12.3683 9.03482 12.6667 8.66663 12.6667H7.33329C6.9651 12.6667 6.66663 12.3683 6.66663 12.0001V11.3334Z" fill="#DCDCDC"/>
<path fill-rule="evenodd" clip-rule="evenodd" d="M10.6666 7.99992C10.6666 7.63173 10.9651 7.33325 11.3333 7.33325H12.6666C13.0348 7.33325 13.3333 7.63173 13.3333 7.99992V8.66658C13.3333 9.03477 13.0348 9.33325 12.6666 9.33325H11.3333C10.9651 9.33325 10.6666 9.03477 10.6666 8.66658V7.99992Z" fill="#DCDCDC"/>
<path d="M4.66671 8H3.33337V8.66667H4.66671V8Z" fill="#DCDCDC"/>
<path d="M8.66671 8H7.33337V8.66667H8.66671V8Z" fill="#DCDCDC"/>
<path d="M4.66671 11.3333H3.33337V11.9999H4.66671V11.3333Z" fill="#DCDCDC"/>
<path d="M8.66671 11.3333H7.33337V11.9999H8.66671V11.3333Z" fill="#DCDCDC"/>
<path d="M12.6667 8H11.3334V8.66667H12.6667V8Z" fill="#DCDCDC"/>
<path fill-rule="evenodd" clip-rule="evenodd" d="M0 2.66667C0 2.29848 0.298477 2 0.666667 2H15.3333C15.7015 2 16 2.29848 16 2.66667V14.6667C16 15.0349 15.7015 15.3333 15.3333 15.3333H0.666667C0.298477 15.3333 0 15.0349 0 14.6667V2.66667ZM1.33333 3.33333V14H14.6667V3.33333H1.33333Z" fill="#DCDCDC"/>
<path fill-rule="evenodd" clip-rule="evenodd" d="M11.3333 0C11.7015 0 12 0.298477 12 0.666667V2.66667C12 3.03486 11.7015 3.33333 11.3333 3.33333C10.9651 3.33333 10.6666 3.03486 10.6666 2.66667V0.666667C10.6666 0.298477 10.9651 0 11.3333 0Z" fill="#DCDCDC"/>
<path fill-rule="evenodd" clip-rule="evenodd" d="M4.66667 0C5.03486 0 5.33333 0.298477 5.33333 0.666667V2.66667C5.33333 3.03486 5.03486 3.33333 4.66667 3.33333C4.29848 3.33333 4 3.03486 4 2.66667V0.666667C4 0.298477 4.29848 0 4.66667 0Z" fill="#DCDCDC"/>
<path fill-rule="evenodd" clip-rule="evenodd" d="M0 5.33341C0 4.96522 0.298477 4.66675 0.666667 4.66675H15.3333C15.7015 4.66675 16 4.96522 16 5.33341C16 5.7016 15.7015 6.00008 15.3333 6.00008H0.666667C0.298477 6.00008 0 5.7016 0 5.33341Z" fill="#DCDCDC"/>
</svg>
