<svg width="16" height="16" viewBox="0 0 16 16" fill="none" xmlns="http://www.w3.org/2000/svg">
<g clip-path="url(#clip0_6157_25532)">
<path fill-rule="evenodd" clip-rule="evenodd" d="M13.752 0.814534C14.0386 1.04575 14.0834 1.46548 13.8522 1.75201L8.73817 8.08934C8.50695 8.37587 8.08723 8.42071 7.8007 8.18949C7.51417 7.95827 7.46933 7.53855 7.70055 7.25202L12.8145 0.914683C13.0458 0.628151 13.4655 0.583313 13.752 0.814534Z" fill="#808080"/>
<path fill-rule="evenodd" clip-rule="evenodd" d="M1.35169 14.6667H7.7787C7.49162 13.9343 7.32382 13.158 7.28407 12.3675C7.22612 11.2149 7.44208 10.0651 7.91407 9.01222C7.95599 8.89083 7.98459 8.76526 7.99937 8.63771C7.99214 8.47144 7.92292 8.31346 7.80474 8.19528C7.67971 8.07026 7.51014 8.00002 7.33333 8.00002C5.32669 8.00002 3.857 8.80302 2.87153 10.0833C1.97736 11.2449 1.45357 12.8395 1.35169 14.6667ZM1.81497 9.26995C3.05834 7.65468 4.92198 6.66669 7.33333 6.66669C7.86377 6.66669 8.37247 6.8774 8.74755 7.25247C9.12262 7.62755 9.33333 8.13625 9.33333 8.66669C9.33333 8.68796 9.33232 8.70921 9.33028 8.73039C9.3055 8.9886 9.24846 9.24269 9.16051 9.48673C9.15452 9.50336 9.14787 9.51974 9.14057 9.53584C8.74789 10.4024 8.56794 11.3503 8.61572 12.3006C8.6635 13.2508 8.93761 14.1758 9.41524 14.9987C9.53495 15.2049 9.53539 15.4594 9.4164 15.666C9.29742 15.8727 9.07712 16 8.83867 16H0.666667C0.298477 16 0 15.7015 0 15.3334C0 13.0207 0.587481 10.8646 1.81497 9.26995Z" fill="#808080"/>
<path fill-rule="evenodd" clip-rule="evenodd" d="M11.3333 10C11.3333 9.63182 11.6318 9.33334 12 9.33334H15.3333C15.7015 9.33334 16 9.63182 16 10C16 10.3682 15.7015 10.6667 15.3333 10.6667H12C11.6318 10.6667 11.3333 10.3682 11.3333 10Z" fill="#808080"/>
<path fill-rule="evenodd" clip-rule="evenodd" d="M10.6667 12.6667C10.6667 12.2985 10.9652 12 11.3334 12H15.3334C15.7015 12 16 12.2985 16 12.6667C16 13.0349 15.7015 13.3333 15.3334 13.3333H11.3334C10.9652 13.3333 10.6667 13.0349 10.6667 12.6667Z" fill="#808080"/>
<path fill-rule="evenodd" clip-rule="evenodd" d="M12 15.3334C12 14.9652 12.2985 14.6667 12.6667 14.6667H15.3333C15.7015 14.6667 16 14.9652 16 15.3334C16 15.7015 15.7015 16 15.3333 16H12.6667C12.2985 16 12 15.7015 12 15.3334Z" fill="#808080"/>
<path fill-rule="evenodd" clip-rule="evenodd" d="M5.48997 6.95376C5.85241 7.01855 6.09371 7.3649 6.02891 7.72734C5.97841 8.00982 5.99143 8.3 6.06701 8.57682C6.1426 8.85365 6.27886 9.11018 6.46592 9.32779C6.65297 9.54541 6.88612 9.71866 7.14845 9.83497C7.40445 9.94848 7.68198 10.005 7.96183 10.0007C7.96786 9.99985 7.97485 9.99894 7.98196 9.99811C8.00162 9.9958 8.02999 9.99304 8.06373 9.99222C8.43181 9.98324 8.73747 10.2743 8.74645 10.6424C8.75515 10.999 8.48219 11.297 8.13046 11.3235C8.12171 11.3247 8.10665 11.3268 8.0898 11.3285C8.06975 11.3307 8.04305 11.3328 8.01174 11.3333C7.52895 11.345 7.04954 11.2496 6.60801 11.0539C6.16477 10.8573 5.77083 10.5646 5.45477 10.1969C5.13872 9.82922 4.90848 9.39577 4.78077 8.92803C4.65305 8.46029 4.63106 7.96999 4.71639 7.4927C4.78118 7.13025 5.12753 6.88896 5.48997 6.95376Z" fill="#808080"/>
<path fill-rule="evenodd" clip-rule="evenodd" d="M3.59771 12.412C3.95929 12.4814 4.19613 12.8308 4.12669 13.1924C3.99415 13.8827 3.95105 14.5871 3.99847 15.2884C4.02331 15.6557 3.74565 15.9737 3.3783 15.9985C3.01094 16.0233 2.69301 15.7457 2.66817 15.3783C2.61303 14.5628 2.66315 13.7437 2.81728 12.941C2.88671 12.5794 3.23612 12.3426 3.59771 12.412Z" fill="#808080"/>
<path fill-rule="evenodd" clip-rule="evenodd" d="M6.47755 13.1724C6.53592 12.8093 6.28905 12.4674 5.92584 12.4086C5.56238 12.3497 5.22005 12.5967 5.16123 12.9602L5.81437 13.0659C5.16123 12.9602 5.16125 12.96 5.16123 12.9602L5.16103 12.9614L5.16074 12.9632L5.15991 12.9684L5.15731 12.9855C5.15517 12.9998 5.15229 13.0197 5.14891 13.0446C5.14214 13.0943 5.1333 13.1644 5.12436 13.2502C5.10657 13.4208 5.0879 13.6579 5.08503 13.922C5.08219 14.1842 5.09471 14.4867 5.1443 14.7842C5.19274 15.0748 5.28353 15.4047 5.46528 15.6908C5.66271 16.0016 6.07469 16.0935 6.38548 15.8961C6.69626 15.6986 6.78815 15.2866 6.59071 14.9759C6.54313 14.9009 6.49317 14.767 6.45949 14.565C6.42695 14.3698 6.41597 14.1507 6.41829 13.9365C6.42059 13.7242 6.43575 13.53 6.45051 13.3884C6.45784 13.3181 6.46495 13.2619 6.47006 13.2244C6.47261 13.2056 6.47465 13.1916 6.47596 13.1828L6.47734 13.1738L6.47755 13.1724C6.47756 13.1724 6.47757 13.1723 6.47755 13.1724Z" fill="#808080"/>
</g>
<defs>
<clipPath id="clip0_6157_25532">
<rect width="16" height="16" fill="white"/>
</clipPath>
</defs>
</svg>
