<svg width="16" height="16" viewBox="0 0 16 16" fill="none" xmlns="http://www.w3.org/2000/svg">
<g clip-path="url(#clip0_6167_27441)">
<path fill-rule="evenodd" clip-rule="evenodd" d="M8.00004 6C8.36823 6 8.66671 6.29848 8.66671 6.66667V15.3333C8.66671 15.7015 8.36823 16 8.00004 16C7.63185 16 7.33337 15.7015 7.33337 15.3333V6.66667C7.33337 6.29848 7.63185 6 8.00004 6Z" fill="white"/>
<path fill-rule="evenodd" clip-rule="evenodd" d="M4.86195 12.1953C5.1223 11.9349 5.54441 11.9349 5.80476 12.1953L8.00002 14.3905L10.1953 12.1953C10.4556 11.9349 10.8777 11.9349 11.1381 12.1953C11.3984 12.4556 11.3984 12.8777 11.1381 13.1381L8.47142 15.8047C8.21108 16.0651 7.78897 16.0651 7.52862 15.8047L4.86195 13.1381C4.6016 12.8777 4.6016 12.4556 4.86195 12.1953Z" fill="white"/>
<path fill-rule="evenodd" clip-rule="evenodd" d="M6.21108 0.776189C7.18113 0.261867 8.26319 -0.00490627 9.36114 -0.000432938C10.4591 0.00404035 11.5389 0.279622 12.5048 0.801831C13.4706 1.32404 14.2925 2.07671 14.8974 2.99298C15.5024 3.90925 15.8717 4.96074 15.9725 6.05407C16.0733 7.14739 15.9025 8.24869 15.4753 9.26013C15.0481 10.2716 14.3777 11.1618 13.5236 11.8518C13.2372 12.0832 12.8175 12.0386 12.5861 11.7522C12.3547 11.4658 12.3993 11.0461 12.6857 10.8147C13.3689 10.2627 13.9053 9.55049 14.247 8.74134C14.5888 7.93218 14.7254 7.05115 14.6448 6.17649C14.5641 5.30183 14.2687 4.46063 13.7847 3.72762C13.3008 2.9946 12.6433 2.39247 11.8706 1.9747C11.0979 1.55693 10.2341 1.33647 9.35571 1.33289C8.47735 1.32931 7.6117 1.54273 6.83566 1.95419C6.05963 2.36564 5.39723 2.9624 4.90731 3.69145C4.41739 4.4205 4.11511 5.25926 4.02734 6.13323C3.99799 6.42548 3.78083 6.66409 3.49262 6.72076C2.93551 6.83029 2.4279 7.11479 2.04369 7.53283C1.65948 7.95087 1.41873 8.48063 1.35649 9.04499C1.29425 9.60935 1.41376 10.1788 1.69763 10.6706C1.9815 11.1623 2.41491 11.5506 2.93476 11.7789C3.27187 11.9269 3.42512 12.3203 3.27707 12.6574C3.12901 12.9945 2.7357 13.1477 2.3986 12.9997C1.61882 12.6572 0.968706 12.0748 0.542901 11.3372C0.117096 10.5996 -0.0621725 9.74536 0.031193 8.89882C0.124558 8.05228 0.485683 7.25764 1.062 6.63058C1.52786 6.12369 2.11468 5.7477 2.76391 5.53541C2.92297 4.61119 3.2756 3.72907 3.80064 2.94777C4.41304 2.03646 5.24104 1.29051 6.21108 0.776189Z" fill="white"/>
</g>
<defs>
<clipPath id="clip0_6167_27441">
<rect width="16" height="16" fill="white"/>
</clipPath>
</defs>
</svg>
