<svg width="16" height="16" viewBox="0 0 16 16" fill="none" xmlns="http://www.w3.org/2000/svg">
<path fill-rule="evenodd" clip-rule="evenodd" d="M2.86201 4.19526C3.12236 3.93491 3.54447 3.93491 3.80482 4.19526L8.00008 8.39052L12.1953 4.19526C12.4557 3.93491 12.8778 3.93491 13.1382 4.19526C13.3985 4.45561 13.3985 4.87772 13.1382 5.13807L8.47149 9.80474C8.21114 10.0651 7.78903 10.0651 7.52868 9.80474L2.86201 5.13807C2.60166 4.87772 2.60166 4.45561 2.86201 4.19526Z" fill="#DCDCDC"/>
<path fill-rule="evenodd" clip-rule="evenodd" d="M2 2.66667C1.63181 2.66667 1.33333 2.96515 1.33333 3.33334V12.6667C1.33333 13.0349 1.63181 13.3333 2 13.3333H14C14.3682 13.3333 14.6667 13.0349 14.6667 12.6667V3.33334C14.6667 2.96515 14.3682 2.66667 14 2.66667H2ZM0 3.33334C0 2.22877 0.895431 1.33334 2 1.33334H14C15.1046 1.33334 16 2.22877 16 3.33334V12.6667C16 13.7712 15.1046 14.6667 14 14.6667H2C0.895431 14.6667 0 13.7712 0 12.6667V3.33334Z" fill="#DCDCDC"/>
<path fill-rule="evenodd" clip-rule="evenodd" d="M5.13815 9.5286C5.3985 9.78895 5.3985 10.2111 5.13815 10.4714L3.80482 11.8047C3.54447 12.0651 3.12236 12.0651 2.86201 11.8047C2.60166 11.5444 2.60166 11.1223 2.86201 10.8619L4.19534 9.5286C4.45569 9.26825 4.8778 9.26825 5.13815 9.5286Z" fill="#DCDCDC"/>
<path fill-rule="evenodd" clip-rule="evenodd" d="M10.862 9.5286C11.1224 9.26825 11.5445 9.26825 11.8048 9.5286L13.1382 10.8619C13.3985 11.1223 13.3985 11.5444 13.1382 11.8047C12.8778 12.0651 12.4557 12.0651 12.1953 11.8047L10.862 10.4714C10.6017 10.2111 10.6017 9.78895 10.862 9.5286Z" fill="#DCDCDC"/>
</svg>
