<svg width="16" height="16" viewBox="0 0 16 16" fill="none" xmlns="http://www.w3.org/2000/svg">
<path fill-rule="evenodd" clip-rule="evenodd" d="M0.666687 0.666667C0.666687 0.298477 0.965164 0 1.33335 0H14.6667C15.0349 0 15.3334 0.298477 15.3334 0.666667V2.66667C15.3334 2.84348 15.2631 3.01305 15.1381 3.13807L10 8.27614V13.3333C10 13.5858 9.85735 13.8167 9.6315 13.9296L6.96483 15.263C6.75817 15.3663 6.51274 15.3552 6.3162 15.2338C6.11966 15.1123 6.00002 14.8977 6.00002 14.6667V8.27614L0.861949 3.13807C0.736925 3.01305 0.666687 2.84348 0.666687 2.66667V0.666667ZM2.00002 1.33333V2.39052L7.13809 7.5286C7.26312 7.65362 7.33335 7.82319 7.33335 8V13.588L8.66669 12.9213V8C8.66669 7.82319 8.73692 7.65362 8.86195 7.5286L14 2.39052V1.33333H2.00002Z" fill="#808080"/>
</svg>
