<svg width="16" height="16" viewBox="0 0 16 16" fill="none" xmlns="http://www.w3.org/2000/svg">
<path fill-rule="evenodd" clip-rule="evenodd" d="M9.5184 2.75777L7.80476 4.47142C7.54441 4.73177 7.1223 4.73177 6.86195 4.47142C6.6016 4.21107 6.6016 3.78896 6.86195 3.52861L8.58434 1.80621C9.33287 1.07566 10.3374 0.666748 11.3834 0.666748C12.4293 0.666748 13.4338 1.07569 14.1823 1.80625L13.7167 2.28335L14.1938 1.81771C14.9243 2.56623 15.3333 3.57073 15.3333 4.61668C15.3333 5.66263 14.9243 6.66713 14.1938 7.41566L14.1881 7.42145L12.4714 9.13809C12.2111 9.39844 11.789 9.39844 11.5286 9.13809C11.2683 8.87774 11.2683 8.45563 11.5286 8.19528L13.2423 6.48163C13.7281 5.98245 14 5.31334 14 4.61668C14 3.92144 13.7292 3.25365 13.2452 2.7548C12.7464 2.27085 12.0786 2.00008 11.3834 2.00008C10.6867 2.00008 10.0176 2.27196 9.5184 2.75777Z" fill="#808080"/>
<path fill-rule="evenodd" clip-rule="evenodd" d="M4.47142 6.86201C4.73177 7.12236 4.73177 7.54447 4.47142 7.80482L2.75777 9.51846C2.27196 10.0176 2.00008 10.6868 2.00008 11.3834C2.00008 12.0787 2.27085 12.7464 2.7548 13.2453C3.25365 13.7292 3.92144 14 4.61668 14C5.31334 14 5.98245 13.7281 6.48163 13.2423L8.19528 11.5287C8.45563 11.2683 8.87774 11.2683 9.13809 11.5287C9.39844 11.789 9.39844 12.2111 9.13809 12.4715L7.41569 14.1939C6.66716 14.9244 5.66263 15.3333 4.61668 15.3333C3.57073 15.3333 2.56623 14.9244 1.81771 14.1938L2.28335 13.7167L1.80625 14.1824C1.07569 13.4339 0.666748 12.4294 0.666748 11.3834C0.666748 10.3375 1.07569 9.33297 1.80625 8.58444L1.81191 8.57864L3.52861 6.86201C3.78896 6.60166 4.21107 6.60166 4.47142 6.86201Z" fill="#808080"/>
<path fill-rule="evenodd" clip-rule="evenodd" d="M11.1381 4.86201C11.3984 5.12236 11.3984 5.54447 11.1381 5.80482L5.80476 11.1382C5.54441 11.3985 5.1223 11.3985 4.86195 11.1382C4.6016 10.8778 4.6016 10.4557 4.86195 10.1953L10.1953 4.86201C10.4556 4.60166 10.8777 4.60166 11.1381 4.86201Z" fill="#808080"/>
</svg>
