<svg width="152" height="62" viewBox="0 0 152 62" fill="none" xmlns="http://www.w3.org/2000/svg">
<path fill-rule="evenodd" clip-rule="evenodd" d="M65.4856 0C55.218 0 46.8184 8.35379 46.8184 18.5623V42.92C46.8184 53.1285 55.2205 61.4823 65.4881 61.4823C75.7583 61.4823 84.1604 53.1285 84.1604 42.92V35.9937H71.9263V42.92C71.9263 46.3882 68.9764 49.3185 65.4881 49.3185C61.9999 49.3185 59.0525 46.3882 59.0525 42.92V18.5623C59.0525 15.0941 61.9999 12.1638 65.4881 12.1638C68.9764 12.1638 71.9263 15.0941 71.9263 18.5623V25.4886H84.1604V18.5623C84.1604 8.35379 75.7583 0 65.4881 0" fill="black"/>
<path fill-rule="evenodd" clip-rule="evenodd" d="M114.301 25.4886H101.425V18.5623C101.425 15.0941 104.372 12.1638 107.861 12.1638C111.349 12.1638 114.296 15.0941 114.296 18.5623V25.4886H114.301ZM107.861 0C97.5955 0 89.1934 8.35379 89.1934 18.5623V42.92C89.1934 53.1285 97.5955 61.4823 107.863 61.4823C118.133 61.4823 126.533 53.1285 126.533 42.92V42.4802H114.299V42.92C114.299 46.3882 111.351 49.3185 107.863 49.3185C104.375 49.3185 101.428 46.3882 101.428 42.92V35.9937L126.533 35.9987V18.5623C126.533 8.35379 118.133 0 107.863 0H107.861Z" fill="black"/>
<path fill-rule="evenodd" clip-rule="evenodd" d="M147.028 11.3671H142.9V15.4661H140.132V11.3696H136.012V8.61516H140.132V4.51617H142.902V8.61265H147.025V11.3671H147.028ZM141.517 0C138.852 0 136.297 1.0525 134.412 2.92596C132.528 4.79943 131.469 7.34039 131.469 9.98987C131.469 12.6393 132.528 15.1803 134.412 17.0538C136.297 18.9272 138.852 19.9797 141.517 19.9797C144.182 19.9797 146.738 18.9272 148.622 17.0538C150.506 15.1803 151.565 12.6393 151.565 9.98987C151.565 7.34039 150.506 4.79943 148.622 2.92596C146.738 1.0525 144.182 0 141.517 0V0Z" fill="black"/>
<path fill-rule="evenodd" clip-rule="evenodd" d="M26.9607 0H16.9914L22.881 20.6985L22.7419 21.2313H23.0326L29.3873 43.5634H16.9256L22.7394 21.2313H10.6139L0 62H12.1306L13.8898 55.2396H32.7088L34.6324 62H46.8362L29.1927 0H26.9607Z" fill="black"/>
</svg>
