<svg width="16" height="16" viewBox="0 0 16 16" fill="none" xmlns="http://www.w3.org/2000/svg">
<path fill-rule="evenodd" clip-rule="evenodd" d="M11.5285 11.5288C11.7889 11.2684 12.211 11.2684 12.4713 11.5288L15.138 14.1954C15.3983 14.4558 15.3983 14.8779 15.138 15.1382C14.8776 15.3986 14.4555 15.3986 14.1952 15.1382L11.5285 12.4716C11.2682 12.2112 11.2682 11.7891 11.5285 11.5288Z" fill="#DCDCDC"/>
<path fill-rule="evenodd" clip-rule="evenodd" d="M6.66663 2.00008C4.0893 2.00008 1.99996 4.08942 1.99996 6.66675C1.99996 9.24408 4.0893 11.3334 6.66663 11.3334C9.24396 11.3334 11.3333 9.24408 11.3333 6.66675C11.3333 4.08942 9.24396 2.00008 6.66663 2.00008ZM0.666626 6.66675C0.666626 3.35304 3.35292 0.666748 6.66663 0.666748C9.98034 0.666748 12.6666 3.35304 12.6666 6.66675C12.6666 9.98046 9.98034 12.6667 6.66663 12.6667C3.35292 12.6667 0.666626 9.98046 0.666626 6.66675Z" fill="#DCDCDC"/>
<path fill-rule="evenodd" clip-rule="evenodd" d="M6.66659 4.66683C6.13615 4.66683 5.62744 4.87754 5.25237 5.25262C4.8773 5.62769 4.66659 6.1364 4.66659 6.66683C4.66659 7.03502 4.36811 7.3335 3.99992 7.3335C3.63173 7.3335 3.33325 7.03502 3.33325 6.66683C3.33325 5.78277 3.68444 4.93493 4.30956 4.30981C4.93468 3.68469 5.78253 3.3335 6.66659 3.3335C7.03478 3.3335 7.33325 3.63197 7.33325 4.00016C7.33325 4.36835 7.03478 4.66683 6.66659 4.66683Z" fill="#DCDCDC"/>
</svg>
