<svg width="16" height="16" viewBox="0 0 16 16" fill="none" xmlns="http://www.w3.org/2000/svg">
<path fill-rule="evenodd" clip-rule="evenodd" d="M15.1379 0.861888C15.3983 1.12224 15.3983 1.54435 15.1379 1.8047L7.80458 9.13803C7.54423 9.39838 7.12212 9.39838 6.86177 9.13803C6.60142 8.87768 6.60142 8.45557 6.86177 8.19522L14.1951 0.861888C14.4554 0.601539 14.8776 0.601539 15.1379 0.861888Z" fill="white"/>
<path fill-rule="evenodd" clip-rule="evenodd" d="M15.138 0.861907C15.3219 1.04578 15.382 1.31978 15.2922 1.56378L10.6255 14.2304C10.5336 14.4799 10.3022 14.6509 10.0368 14.6656C9.77134 14.6803 9.52253 14.5359 9.40364 14.2981L6.83635 9.16355L1.70178 6.59626C1.46399 6.47737 1.31958 6.22856 1.33428 5.96311C1.34898 5.69766 1.51999 5.46632 1.76945 5.37442L14.4361 0.70775C14.6801 0.617854 14.9541 0.678035 15.138 0.861907ZM3.67633 6.09283L7.6314 8.07036C7.76042 8.13487 7.86503 8.23948 7.92954 8.3685L9.90707 12.3236L13.5417 2.45823L3.67633 6.09283Z" fill="white"/>
</svg>
