<svg width="16" height="16" viewBox="0 0 16 16" fill="none" xmlns="http://www.w3.org/2000/svg">
<path fill-rule="evenodd" clip-rule="evenodd" d="M2.66667 5.33337C3.03486 5.33337 3.33333 5.63185 3.33333 6.00004V14C3.33333 14.1769 3.40357 14.3464 3.5286 14.4714C3.65362 14.5965 3.82319 14.6667 4 14.6667H12C12.1768 14.6667 12.3464 14.5965 12.4714 14.4714C12.5964 14.3464 12.6667 14.1769 12.6667 14V6.00004C12.6667 5.63185 12.9651 5.33337 13.3333 5.33337C13.7015 5.33337 14 5.63185 14 6.00004V14C14 14.5305 13.7893 15.0392 13.4142 15.4143C13.0391 15.7893 12.5304 16 12 16H4C3.46957 16 2.96086 15.7893 2.58579 15.4143C2.21071 15.0392 2 14.5305 2 14V6.00004C2 5.63185 2.29848 5.33337 2.66667 5.33337Z" fill="#808080"/>
<path fill-rule="evenodd" clip-rule="evenodd" d="M0 3.33329C0 2.9651 0.298477 2.66663 0.666667 2.66663H15.3333C15.7015 2.66663 16 2.9651 16 3.33329C16 3.70148 15.7015 3.99996 15.3333 3.99996H0.666667C0.298477 3.99996 0 3.70148 0 3.33329Z" fill="#808080"/>
<path fill-rule="evenodd" clip-rule="evenodd" d="M7.99998 7.33337C8.36817 7.33337 8.66665 7.63185 8.66665 8.00004V12C8.66665 12.3682 8.36817 12.6667 7.99998 12.6667C7.63179 12.6667 7.33331 12.3682 7.33331 12V8.00004C7.33331 7.63185 7.63179 7.33337 7.99998 7.33337Z" fill="#808080"/>
<path fill-rule="evenodd" clip-rule="evenodd" d="M5.33335 7.33337C5.70154 7.33337 6.00002 7.63185 6.00002 8.00004V12C6.00002 12.3682 5.70154 12.6667 5.33335 12.6667C4.96516 12.6667 4.66669 12.3682 4.66669 12V8.00004C4.66669 7.63185 4.96516 7.33337 5.33335 7.33337Z" fill="#808080"/>
<path fill-rule="evenodd" clip-rule="evenodd" d="M10.6667 7.33337C11.0349 7.33337 11.3333 7.63185 11.3333 8.00004V12C11.3333 12.3682 11.0349 12.6667 10.6667 12.6667C10.2985 12.6667 10 12.3682 10 12V8.00004C10 7.63185 10.2985 7.33337 10.6667 7.33337Z" fill="#808080"/>
<path fill-rule="evenodd" clip-rule="evenodd" d="M4.66669 0.666667C4.66669 0.298477 4.96516 0 5.33335 0H10.6667C11.0349 0 11.3334 0.298477 11.3334 0.666667V3.33333C11.3334 3.70152 11.0349 4 10.6667 4C10.2985 4 10 3.70152 10 3.33333V1.33333H6.00002V3.33333C6.00002 3.70152 5.70154 4 5.33335 4C4.96516 4 4.66669 3.70152 4.66669 3.33333V0.666667Z" fill="#808080"/>
</svg>
